<?xml version="1.0" encoding="UTF-8"?>
<svg version="1.1" xmlns="http://www.w3.org/2000/svg" width="381" height="410">
<path d="M0 0 C125.73 0 251.46 0 381 0 C381 135.3 381 270.6 381 410 C255.27 410 129.54 410 0 410 C0 274.7 0 139.4 0 0 Z " fill="#FDFDFD" transform="translate(0,0)"/>
<path d="M0 0 C3.05175779 0.61714582 4.12026306 2.0641946 6.10546875 4.42578125 C7.01855469 7.12719727 7.01855469 7.12719727 7.58984375 10.1796875 C7.80253906 11.28119141 8.01523438 12.38269531 8.234375 13.51757812 C8.43933594 14.66291016 8.64429688 15.80824219 8.85546875 16.98828125 C9.07589844 18.13748047 9.29632813 19.28667969 9.5234375 20.47070312 C11.10546875 28.85743401 11.10546875 28.85743401 11.10546875 32.42578125 C11.63914062 32.28140625 12.1728125 32.13703125 12.72265625 31.98828125 C18.45848297 30.55928636 24.19336497 29.66581328 30.10546875 30.42578125 C32.10546875 32.42578125 32.10546875 32.42578125 32.73046875 34.73828125 C31.97401878 37.99101612 31.34233835 38.24956409 28.60546875 39.98828125 C24.52027128 42.29349982 20.32991411 44.3889951 16.10546875 46.42578125 C16.60046875 49.39578125 16.60046875 49.39578125 17.10546875 52.42578125 C17.73195313 52.63074219 18.3584375 52.83570313 19.00390625 53.046875 C19.82117188 53.31628906 20.6384375 53.58570313 21.48046875 53.86328125 C22.29257813 54.13011719 23.1046875 54.39695313 23.94140625 54.671875 C26.10546875 55.42578125 26.10546875 55.42578125 28.10546875 56.42578125 C30.75393833 62.52618871 31.0497323 69.26214038 31.69726562 75.81445312 C32.27785806 81.41774894 32.27785806 81.41774894 35.5234375 85.828125 C39.59623249 89.92556625 39.99025994 94.88496277 41.10546875 100.42578125 C41.60708014 102.76193214 42.10969967 105.09786676 42.61328125 107.43359375 C42.85981445 108.6030957 43.10634766 109.77259766 43.36035156 110.97753906 C44.6595774 116.99007697 46.14936747 122.95646952 47.6328125 128.92578125 C47.82746094 129.72757813 48.02210937 130.529375 48.22265625 131.35546875 C48.39394043 132.04882324 48.56522461 132.74217773 48.74169922 133.45654297 C49.10546875 135.42578125 49.10546875 135.42578125 49.10546875 139.42578125 C49.76546875 139.42578125 50.42546875 139.42578125 51.10546875 139.42578125 C51.39421875 138.68328125 51.68296875 137.94078125 51.98046875 137.17578125 C53.10546875 134.42578125 53.10546875 134.42578125 54.29296875 132.48828125 C55.32332504 130.39751075 55.32332504 130.39751075 54.671875 127.93359375 C52.81892081 116.45805678 52.8167929 103.30186322 57.10546875 92.42578125 C57.46898437 91.42289062 57.8325 90.42 58.20703125 89.38671875 C61.85497924 79.90205399 66.08701787 72.51878279 75.19921875 67.49609375 C82.30924157 64.87761761 90.18435324 65.43346832 97.29296875 67.86328125 C104.4884926 71.19981954 111.1947247 76.61492951 115.91796875 82.98828125 C117.92283545 85.75064117 117.92283545 85.75064117 121.29296875 85.86328125 C124.04941303 85.58065052 124.04941303 85.58065052 126.10546875 84.42578125 C134.11783366 83.21075667 142.07885197 83.31145349 150.16796875 83.36328125 C151.52408688 83.36830811 152.88020683 83.37286891 154.23632812 83.37695312 C157.52608869 83.38866046 160.81575469 83.40505914 164.10546875 83.42578125 C164.10546875 82.76578125 164.10546875 82.10578125 164.10546875 81.42578125 C165.96818498 79.8334114 167.82202978 78.37221478 169.79296875 76.92578125 C170.32341797 76.52230469 170.85386719 76.11882812 171.40039062 75.703125 C178.17685148 70.66443141 183.78048971 69.49039035 192.10546875 70.42578125 C196.80356186 71.84164493 199.91203432 74.06540358 203.10546875 77.73828125 C204.4330125 79.24775712 204.4330125 79.24775712 206.10546875 80.42578125 C211.0774708 80.19378964 215.39580996 79.1347666 220.09204102 77.55834961 C229.85989092 74.28784877 240.85352264 71.67538643 250.73046875 76.05078125 C254.66336249 78.46706891 258.11712175 81.72969901 259.73706055 86.14868164 C260.26166154 89.39119554 260.14699816 92.58859701 260.0625 95.859375 C260.0401145 97.32746049 260.0186588 98.79556041 259.99804688 100.26367188 C259.96095758 102.56591004 259.91786259 104.86740748 259.85864258 107.16918945 C259.80400377 109.3993593 259.77502496 111.62870173 259.75 113.859375 C259.7262178 114.54285507 259.70243561 115.22633514 259.67793274 115.93052673 C259.65164803 120.75135221 260.82787948 122.96856582 264.10546875 126.42578125 C266.24158335 130.69801044 265.68683306 135.80153486 265.10546875 140.42578125 C263.06518547 145.8184069 260.29657414 150.63912317 257.10546875 155.42578125 C256.70549083 160.03978361 256.70549083 160.03978361 258.10888672 164.33691406 C259.31268259 166.86010795 259.33475205 168.62455034 259.30078125 171.41015625 C259.29433594 172.34472656 259.28789062 173.27929688 259.28125 174.2421875 C259.26449219 175.21027344 259.24773437 176.17835938 259.23046875 177.17578125 C259.22144531 178.15933594 259.21242188 179.14289063 259.203125 180.15625 C259.1795966 182.57967532 259.14672243 185.00260347 259.10546875 187.42578125 C260.09148071 187.60971436 260.09148071 187.60971436 261.09741211 187.79736328 C265.74374544 188.69021654 270.24307285 189.58196134 274.66796875 191.30078125 C275.90740234 191.76097656 275.90740234 191.76097656 277.171875 192.23046875 C279.10546875 193.42578125 279.10546875 193.42578125 279.9453125 195.49609375 C280.02458984 196.45128906 280.02458984 196.45128906 280.10546875 197.42578125 C279.77546875 197.75578125 279.44546875 198.08578125 279.10546875 198.42578125 C274.11222571 197.92834594 269.47215694 196.78166062 264.66796875 195.36328125 C263.43175781 195.00105469 262.19554687 194.63882813 260.921875 194.265625 C259.99246094 193.98847656 259.06304687 193.71132812 258.10546875 193.42578125 C258.16734375 195.22015625 258.16734375 195.22015625 258.23046875 197.05078125 C258.24397103 200.87192607 257.41530412 203.82373398 256.10546875 207.42578125 C256.10546875 208.74578125 256.10546875 210.06578125 256.10546875 211.42578125 C256.87632812 211.83570313 257.6471875 212.245625 258.44140625 212.66796875 C259.44429688 213.20679688 260.4471875 213.745625 261.48046875 214.30078125 C262.47820312 214.83445313 263.4759375 215.368125 264.50390625 215.91796875 C267.10546875 217.42578125 267.10546875 217.42578125 269.10546875 219.42578125 C269.10546875 220.74578125 269.10546875 222.06578125 269.10546875 223.42578125 C265.37281881 222.8520347 262.70609223 221.8086315 259.48046875 219.86328125 C256.06333855 217.78064262 256.06333855 217.78064262 252.10546875 217.42578125 C251.06973979 219.16700674 250.05234355 220.9191472 249.04296875 222.67578125 C248.47449219 223.6503125 247.90601563 224.62484375 247.3203125 225.62890625 C245.93942518 228.24976011 245.93942518 228.24976011 246.19921875 230.59375 C247.33125247 232.88221473 248.63944775 233.95152292 250.66796875 235.48828125 C252.609375 236.9609375 252.609375 236.9609375 254.10546875 238.42578125 C254.10546875 239.41578125 254.10546875 240.40578125 254.10546875 241.42578125 C251.98046875 241.80078125 251.98046875 241.80078125 249.10546875 241.42578125 C246.86633623 239.63237768 244.98092336 237.59125462 243.10546875 235.42578125 C239.25351098 236.99509738 236.98802928 239.47618443 234.10546875 242.42578125 C225.76829452 250.73940414 214.57886287 256.88788762 203.10546875 259.42578125 C205.3286748 261.95754615 207.87015824 263.59268532 210.73779297 265.32983398 C223.52834436 273.09515522 233.77126621 282.92447745 242.10546875 295.42578125 C242.10546875 296.74578125 242.10546875 298.06578125 242.10546875 299.42578125 C242.76546875 299.42578125 243.42546875 299.42578125 244.10546875 299.42578125 C248.15201303 306.33862772 247.37448726 313.68402628 247.10546875 321.42578125 C246.44546875 321.42578125 245.78546875 321.42578125 245.10546875 321.42578125 C245.02296875 322.14765625 244.94046875 322.86953125 244.85546875 323.61328125 C243.43658922 328.93407948 240.3615062 331.53874382 235.73046875 334.23828125 C228.50492617 337.64736514 220.27748401 337.67833834 212.68359375 335.3984375 C211.8328125 335.07746094 210.98203125 334.75648438 210.10546875 334.42578125 C210.17765625 335.26496094 210.24984375 336.10414063 210.32421875 336.96875 C210.92550304 344.76039222 211.28537666 352.5493254 211.41796875 360.36328125 C211.46244141 361.67558716 211.46244141 361.67558716 211.5078125 363.0144043 C211.58494958 371.45207548 208.49766126 377.64794616 202.84765625 383.83203125 C193.10058558 392.74863401 178.11192057 395.57315577 165.328125 395.59375 C164.59855087 395.5970784 163.86897675 395.6004068 163.11729431 395.60383606 C161.58186468 395.60887416 160.04642421 395.61124535 158.51098633 395.61108398 C156.17836279 395.6132715 153.84621203 395.63146286 151.51367188 395.65039062 C150.01432452 395.65332512 148.51497494 395.65530954 147.015625 395.65625 C145.98248924 395.66702827 145.98248924 395.66702827 144.92848206 395.67802429 C140.73222585 395.65848719 134.30603993 395.62635243 131.10546875 392.42578125 C129.26097886 392.65904227 127.41693156 392.89630151 125.57519531 393.15039062 C109.26582767 394.96899152 89.07311465 395.23696505 75.10546875 385.42578125 C70.660891 381.31043148 66.95735846 377.27775274 65.10546875 371.42578125 C65.10546875 370.10578125 65.10546875 368.78578125 65.10546875 367.42578125 C61.3340475 368.23556826 57.56343823 369.04907517 53.79296875 369.86328125 C52.18518555 370.20842773 52.18518555 370.20842773 50.54492188 370.56054688 C49.51689453 370.78291016 48.48886719 371.00527344 47.4296875 371.234375 C46.48182373 371.43861084 45.53395996 371.64284668 44.55737305 371.85327148 C41.99033594 372.41291823 41.99033594 372.41291823 39.10546875 373.42578125 C36.94921875 373.6640625 36.94921875 373.6640625 34.60546875 373.73828125 C33.83203125 373.77566406 33.05859375 373.81304687 32.26171875 373.8515625 C30.10546875 373.42578125 30.10546875 373.42578125 28.48999023 371.90087891 C26.55310911 368.43833248 26.70724696 365.25761265 26.796875 361.3984375 C26.80691055 360.5744899 26.81694611 359.7505423 26.82728577 358.90162659 C27.06246796 346.86573896 28.10661166 334.86010441 29.04296875 322.86328125 C29.41216719 318.09157775 29.77589379 313.31951307 30.1328125 308.546875 C30.2201767 307.38409027 30.30754089 306.22130554 30.39755249 305.02328491 C31.08716956 295.48872683 31.49747859 285.95457274 31.76707458 276.39927673 C31.79825882 275.37943192 31.82944305 274.3595871 31.86157227 273.30883789 C31.88510269 272.41105118 31.90863312 271.51326447 31.93287659 270.58827209 C32.10546875 268.42578125 32.10546875 268.42578125 33.10546875 266.42578125 C29.35519034 268.21686557 25.60529465 270.00874976 21.85546875 271.80078125 C20.79199219 272.30867188 19.72851562 272.8165625 18.6328125 273.33984375 C17.60800781 273.8296875 16.58320312 274.31953125 15.52734375 274.82421875 C14.11340332 275.49976807 14.11340332 275.49976807 12.67089844 276.18896484 C11.08457938 276.95374333 9.50733785 277.73810243 7.94628906 278.55322266 C5.02825134 279.93638802 3.29459787 279.99982449 0.10546875 279.42578125 C-3.40899017 276.38602413 -6.08236411 272.70283923 -7.89453125 268.42578125 C-7.77953615 263.13600667 -5.55877636 260.02283992 -1.89453125 256.42578125 C0.53997185 254.62000363 3.09619696 253.10792179 5.73046875 251.61328125 C6.39820313 251.21947266 7.0659375 250.82566406 7.75390625 250.41992188 C10.50469292 248.81621325 13.07734878 247.43515457 16.10546875 246.42578125 C15.29526786 243.63342838 14.48241755 240.84189504 13.66796875 238.05078125 C13.43787109 237.25671875 13.20777344 236.46265625 12.97070312 235.64453125 C12.74833984 234.88398438 12.52597656 234.1234375 12.296875 233.33984375 C12.09263916 232.63811035 11.88840332 231.93637695 11.67797852 231.21337891 C11.13170554 229.35067367 11.13170554 229.35067367 10.10546875 227.42578125 C9.56757629 221.09520071 9.54551705 215.91404012 13.10546875 210.42578125 C12.24501953 210.51279297 12.24501953 210.51279297 11.3671875 210.6015625 C-9.17259092 211.69244603 -29.61955583 201.43779735 -44.89453125 188.42578125 C-53.62376781 180.41137981 -53.62376781 180.41137981 -54.26953125 175.67578125 C-53.50838796 169.07920603 -47.62887778 165.16238535 -42.80859375 161.109375 C-40.6754384 159.30672277 -40.6754384 159.30672277 -38.26953125 156.42578125 C-35.89453125 154.42578125 -35.89453125 154.42578125 -33.08203125 154.11328125 C-29.83983667 155.44830255 -28.73664915 156.4338477 -26.39453125 158.92578125 C-13.71126525 172.38359784 1.38527416 176.80864617 19.37109375 177.34765625 C20.6034375 177.3734375 21.83578125 177.39921875 23.10546875 177.42578125 C22.77546875 173.13578125 22.44546875 168.84578125 22.10546875 164.42578125 C21.01234375 164.34328125 19.91921875 164.26078125 18.79296875 164.17578125 C15.10546875 163.42578125 15.10546875 163.42578125 13.16796875 161.92578125 C11.55218829 158.12394487 11.5133988 154.49436451 12.10546875 150.42578125 C13.10546875 149.09244792 14.10546875 147.75911458 15.10546875 146.42578125 C15.74403145 140.48074695 14.80904341 134.71678786 13.57421875 128.91796875 C13.41884644 128.14824738 13.26347412 127.378526 13.10339355 126.58547974 C12.61229605 124.15548415 12.11007205 121.72800535 11.60546875 119.30078125 C11.10156602 116.86629817 10.60041739 114.43140075 10.10754395 111.99465942 C9.80252738 110.48735013 9.49131043 108.9812769 9.17272949 107.47677612 C8.04028891 101.89179986 7.68026989 96.76094874 8.71142578 91.09790039 C9.22223587 86.33761875 8.39630586 82.32465388 7.41015625 77.671875 C7.22083527 76.73513443 7.03151428 75.79839386 6.8364563 74.83326721 C6.22858657 71.84094855 5.60453311 68.85225928 4.98046875 65.86328125 C4.5836299 63.91361585 4.18778832 61.96374719 3.79296875 60.01367188 C1.60688739 49.28806306 -0.71686173 38.59834341 -3.18875122 27.93492126 C-4.17529328 23.667286 -5.1334667 19.39516761 -6.02783203 15.10717773 C-6.2716008 13.9406089 -6.2716008 13.9406089 -6.52029419 12.75047302 C-7.13618296 8.92468527 -7.07872571 5.29386498 -6.89453125 1.42578125 C-5.04421135 -0.42453865 -2.46981043 0.13437993 0 0 Z " fill="#0C0C0C" transform="translate(79.89453125,8.57421875)"/>
<path d="M0 0 C8.04684278 2.35855737 13.66804705 9.36518484 19.27734375 15.234375 C22.37396559 18.47202857 22.37396559 18.47202857 26.50390625 19.16796875 C27.51324219 19.17441406 28.52257812 19.18085937 29.5625 19.1875 C31.04943359 19.20876953 31.04943359 19.20876953 32.56640625 19.23046875 C35.3410346 19.0442309 37.54753213 18.66469133 40.2109375 17.99609375 C45.51393221 16.73981235 50.63781247 16.77684977 56.0625 16.875 C57.50399414 16.88853516 57.50399414 16.88853516 58.97460938 16.90234375 C61.31667805 16.92564792 63.65819792 16.95835942 66 17 C65.47599609 18.44632813 65.47599609 18.44632813 64.94140625 19.921875 C64.48166914 21.19788003 64.02203937 22.47392374 63.5625 23.75 C63.33240234 24.38421875 63.10230469 25.0184375 62.86523438 25.671875 C59.63062115 34.67253788 58.21580938 44.51599019 60.80078125 53.91015625 C63.18316582 58.81410251 66.22512752 61.54967155 71.34375 63.41796875 C79.6679752 65.24195339 87.87289587 64.20396044 96 62 C96.495 62.9075 96.99 63.815 97.5 64.75 C100.4927827 69.22331124 104.90147902 71.30560453 110.07421875 72.46484375 C111.707994 72.70676179 113.35411608 72.86284301 115 73 C115.37125 74.155 115.7425 75.31 116.125 76.5 C118.59394346 82.94668569 121.89060425 88.30086155 128.1875 91.5 C135.20837635 94.14315345 142.08589545 94.13390894 148.9375 91.0625 C149.62714844 90.70285156 150.31679688 90.34320313 151.02734375 89.97265625 C153.00871223 88.99570427 154.84536091 88.45792106 157 88 C159.69180493 94.1014245 160.12501399 99.74851709 160.0625 106.375 C160.05347656 107.62023437 160.04445313 108.86546875 160.03515625 110.1484375 C160.01775391 111.55996094 160.01775391 111.55996094 160 113 C155.05 113.495 155.05 113.495 150 114 C149.67 115.32 149.34 116.64 149 118 C152.3 118 155.6 118 159 118 C158.47606294 123.86809507 157.23891142 128.54873741 155 134 C151.37 134 147.74 134 144 134 C144 135.32 144 136.64 144 138 C146.97 138.33 149.94 138.66 153 139 C151.35821735 143.77609498 148.73453298 147.79382904 146 152 C143.36 151.67 140.72 151.34 138 151 C137.67 151.99 137.34 152.98 137 154 C138.65 154.33 140.3 154.66 142 155 C142 158 142 158 140.70703125 159.54296875 C115.52373831 181.40310551 85.97358332 184.21316294 54 183 C22.27129367 180.71791445 -6.4999273 164.34818194 -27.4765625 141.0703125 C-29.13866781 138.81155401 -30.0721105 136.6366761 -31 134 C-29.35 134 -27.7 134 -26 134 C-26.33 133.01 -26.66 132.02 -27 131 C-28.093125 130.938125 -29.18625 130.87625 -30.3125 130.8125 C-34 130 -34 130 -35.8125 127.9375 C-37.27341868 124.32364853 -38.16106436 120.80747713 -39 117 C-36.36 116.67 -33.72 116.34 -31 116 C-30.67 115.01 -30.34 114.02 -30 113 C-33.3 112.67 -36.6 112.34 -40 112 C-40 106.39 -40 100.78 -40 95 C-37.03 95.33 -34.06 95.66 -31 96 C-31.33 94.68 -31.66 93.36 -32 92 C-34.31 91.34 -36.62 90.68 -39 90 C-38.01146908 82.31287137 -36.52097009 75.88929697 -33 69 C-32.31906569 67.62952503 -31.6395064 66.25836645 -30.9609375 64.88671875 C-28.99116695 60.91567533 -26.99983371 56.95598173 -25 53 C-25.65097656 52.19046875 -26.30195313 51.3809375 -26.97265625 50.546875 C-29.62354029 46.5535786 -29.57324465 42.92706492 -29.4375 38.25 C-29.42356201 37.45013672 -29.40962402 36.65027344 -29.39526367 35.82617188 C-29.20803671 29.82027241 -28.41720478 24.54306799 -26 19 C-25.64808594 18.15050781 -25.29617187 17.30101563 -24.93359375 16.42578125 C-19.81431043 5.12280917 -12.77165257 -1.5533091 0 0 Z " fill="#FCFCFC" transform="translate(171,83)"/>
<path d="M0 0 C4.4823964 0.98750112 8.96133769 1.98572551 13.4296875 3.03515625 C14.16316406 3.20466797 14.89664063 3.37417969 15.65234375 3.54882812 C17.12756515 3.88976242 18.60155491 4.23607306 20.07421875 4.58789062 C31.04719898 7.09572586 41.97461238 7.13527461 53.1875 7.0625 C54.53450352 7.05746963 55.88150889 7.05290947 57.22851562 7.04882812 C60.48572537 7.03715354 63.74283778 7.02077883 67 7 C66.51865601 7.8815979 66.51865601 7.8815979 66.02758789 8.78100586 C63.58477259 14.05607079 64.04757731 21.32875577 65 27 C67.14838446 32.11671446 70.40760312 36.16474722 74.0234375 40.33203125 C78.86823725 46.29410114 79.40648109 50.77250974 79.0144043 58.22802734 C78.79934844 63.41043958 79.45184801 66.50639547 82.6328125 70.5859375 C85.3169388 73.36209098 87.32790082 74.77596694 91 76 C91 77.65 91 79.3 91 81 C66.25 81 41.5 81 16 81 C15.505 77.04 15.505 77.04 15 73 C13.68 73 12.36 73 11 73 C9.68 75.64 8.36 78.28 7 81 C-5.87 81 -18.74 81 -32 81 C-30.83529378 64.69411295 -30.83529378 64.69411295 -28.8125 57.125 C-28.5961792 56.28855957 -28.3798584 55.45211914 -28.15698242 54.59033203 C-22.52651619 33.52651619 -22.52651619 33.52651619 -18 29 C-17.28214895 27.30984348 -16.56621258 25.61881214 -15.86572266 23.92138672 C-14.44636873 20.77126958 -12.58487134 17.94212991 -10.6875 15.0625 C-10.29377197 14.45712402 -9.90004395 13.85174805 -9.49438477 13.22802734 C-6.50776279 8.67472273 -3.34997965 4.2948457 0 0 Z " fill="#F9F9F9" transform="translate(191,267)"/>
<path d="M0 0 C1.08308441 -0.00021904 1.08308441 -0.00021904 2.18804932 -0.0004425 C4.57966087 0.00025532 6.97119498 0.00804164 9.36279297 0.01586914 C11.01903236 0.01773378 12.67527231 0.01915747 14.33151245 0.02015686 C18.69465655 0.0239784 23.05776747 0.03380561 27.42089844 0.04486084 C31.87157746 0.05508275 36.32226184 0.05965615 40.77294922 0.06469727 C49.50864155 0.07542819 58.24430688 0.09250027 66.97998047 0.11352539 C69.56712708 7.443344 70.65489947 15.90746272 68.22216797 23.46899414 C67.22998047 25.23852539 67.22998047 25.23852539 64.97998047 28.11352539 C64.42310547 28.97977539 63.86623047 29.84602539 63.29248047 30.73852539 C53.41429379 40.88369008 37.93869922 42.11850612 24.53344727 42.40625 C12.80519254 42.4949097 -0.28151926 42.54196945 -9.83251953 34.73852539 C-14.29222239 30.07208134 -16.16283882 26.22172513 -16.39501953 19.73852539 C-16.17166083 12.26616171 -14.1945626 6.62190994 -9.02001953 1.11352539 C-6.03437167 -0.37929854 -3.33018235 -0.00564438 0 0 Z " fill="#FBFBFB" transform="translate(215.02001953125,354.886474609375)"/>
<path d="M0 0 C2.9375 2.5 2.9375 2.5 5 5 C5.53052979 5.60851807 6.06105957 6.21703613 6.60766602 6.84399414 C10.08020682 12.22116543 8.11174363 20.0892269 6.94140625 26.03515625 C6.49361697 28.04694423 6.03390333 30.05611394 5.5625 32.0625 C5.33240234 33.09310547 5.10230469 34.12371094 4.86523438 35.18554688 C3.17378827 42.65242347 3.17378827 42.65242347 2 45 C1.01 45 0.02 45 -1 45 C-1.495 39.06 -1.495 39.06 -2 33 C-3.65 33.66 -5.3 34.32 -7 35 C-7.33 39.95 -7.66 44.9 -8 50 C-8.99 50 -9.98 50 -11 50 C-11.33 48.68 -11.66 47.36 -12 46 C-15.41642759 45.74984127 -15.41642759 45.74984127 -19 46 C-19.66 46.99 -20.32 47.98 -21 49 C-21.99 49 -22.98 49 -24 49 C-24.33 43.72 -24.66 38.44 -25 33 C-26.32 33 -27.64 33 -29 33 C-29.33 35.97 -29.66 38.94 -30 42 C-31.32 41.67 -32.64 41.34 -34 41 C-34.18175781 39.66195312 -34.18175781 39.66195312 -34.3671875 38.296875 C-34.53476563 37.12640625 -34.70234375 35.9559375 -34.875 34.75 C-35.03742188 33.58984375 -35.19984375 32.4296875 -35.3671875 31.234375 C-35.92987633 28.35840989 -36.71221423 26.56501591 -38 24 C-39.03763804 16.44696031 -37.85394598 9.58977184 -34 3 C-25.61316924 -7.0359267 -10.48607945 -5.95624733 0 0 Z " fill="#111111" transform="translate(229,284)"/>
<path d="M0 0 C3.3 0 6.6 0 10 0 C9.835 1.505625 9.67 3.01125 9.5 4.5625 C7.57383629 20.39074134 7.57383629 20.39074134 13.2421875 34.56640625 C14.49439652 36.04460566 15.74718173 37.52231691 17 39 C18.71423063 42.60474738 19.36040954 45.86291847 19.8125 49.8125 C20.84504439 57.74546303 22.53605927 65.50106133 24.32348633 73.29614258 C25.71765932 79.63532988 26.30529688 85.51199495 26 92 C21.58606855 94.42426696 17.56170949 95.72560506 12.625 96.6875 C11.37976563 96.93886719 10.13453125 97.19023437 8.8515625 97.44921875 C4.79886692 98.02876244 1.08479319 98.09510051 -3 98 C-2.37861138 75.10208189 -1.66734645 52.20716917 -0.9375 29.3125 C-0.91444038 28.58911816 -0.89138077 27.86573631 -0.86762238 27.12043381 C-0.57935671 18.08025903 -0.29012252 9.04011539 0 0 Z " fill="#F8F8F8" transform="translate(120,274)"/>
<path d="M0 0 C2.81934098 0.89997118 4.20199008 1.92638153 6.39453125 3.88671875 C10.57102579 7.28406893 14.91304274 9.74496352 19.70703125 12.13671875 C20.37581299 12.47388916 21.04459473 12.81105957 21.73364258 13.15844727 C29.84198128 17.11419747 37.53056363 18.24672886 46.45703125 18.88671875 C48.53806037 19.04025809 50.61881401 19.19759545 52.69921875 19.359375 C54.06989502 19.45810913 54.06989502 19.45810913 55.46826172 19.55883789 C57.58203125 19.82421875 57.58203125 19.82421875 58.58203125 20.82421875 C59.48190757 27.12335301 60.01139495 33.45953332 59.58203125 39.82421875 C57.65031977 41.75593023 54.14412824 41.06353352 51.51953125 41.07421875 C31.03664724 41.0626817 11.45228605 34.45653317 -4.47265625 21.4140625 C-6.54274389 19.67746767 -6.54274389 19.67746767 -9.41796875 17.76171875 C-11.41796875 15.82421875 -11.41796875 15.82421875 -12.54296875 12.88671875 C-12.41796875 9.82421875 -12.41796875 9.82421875 -10.29296875 7.26171875 C-9.34421875 6.45734375 -8.39546875 5.65296875 -7.41796875 4.82421875 C-6.59296875 3.87546875 -5.76796875 2.92671875 -4.91796875 1.94921875 C-2.41796875 -0.17578125 -2.41796875 -0.17578125 0 0 Z " fill="#F7F7F7" transform="translate(47.41796875,172.17578125)"/>
<path d="M0 0 C2.5 2.125 2.5 2.125 5 5 C5.86625 5.99 6.7325 6.98 7.625 8 C13.68880356 15.65954133 15.10987987 22.266226 14 32 C12.1803408 36.59402748 8.63776394 40.09832754 4.22265625 42.33984375 C-1.24217205 43.96296499 -7.80739951 44.22880666 -13.171875 42.1640625 C-14.8125 41.125 -14.8125 41.125 -17 39 C-17 38.34 -17 37.68 -17 37 C-17.99 37 -18.98 37 -20 37 C-20.33 38.32 -20.66 39.64 -21 41 C-24.3125 41.25 -24.3125 41.25 -28 41 C-31.69919736 37.42410922 -32.24549228 33.28176332 -32.5 28.3125 C-32.44591999 23.81845156 -32.05202151 21.20608408 -29.125 17.75 C-27.79103672 16.45629718 -26.41232086 15.20767329 -25 14 C-24.22785156 13.32195312 -23.45570313 12.64390625 -22.66015625 11.9453125 C-7.32354038 -0.89577188 -7.32354038 -0.89577188 0 0 Z " fill="#F8F8F8" transform="translate(307,296)"/>
<path d="M0 0 C1.22551323 0.00636726 1.22551323 0.00636726 2.4757843 0.01286316 C5.08445232 0.02965184 7.69234687 0.06730356 10.30078125 0.10546875 C12.0696503 0.12051538 13.83853146 0.13420383 15.60742188 0.14648438 C19.94300621 0.17955589 24.27801261 0.23133885 28.61328125 0.29296875 C28.32888184 1.01597168 28.04448242 1.73897461 27.75146484 2.48388672 C23.92575109 12.5265948 23.11433657 21.94457478 26.61328125 32.29296875 C28.12790858 35.12644305 28.12790858 35.12644305 29.61328125 37.29296875 C29.61328125 37.95296875 29.61328125 38.61296875 29.61328125 39.29296875 C-1.43608329 39.88051131 -1.43608329 39.88051131 -9.95703125 31.8046875 C-15.54948523 25.3653762 -14.90957753 18.42938519 -14.38671875 10.29296875 C-12.32098356 1.64537385 -8.43714824 -0.16456541 0 0 Z " fill="#F8F8F8" transform="translate(168.38671875,354.70703125)"/>
<path d="M0 0 C5.69825715 3.59237951 8.47755989 7.07373986 10.3828125 13.453125 C11.12068813 16.99024311 11.07150181 20.2099668 10.875 23.8125 C6.33729996 24.12188864 4.31332528 23.77657351 0.875 20.8125 C-4.41423464 19.04942179 -8.51189444 19.06569187 -13.5 21.375 C-16.83425822 24.47109692 -17.46264204 26.32318492 -18.125 30.8125 C-18.03464245 35.60145037 -17.60634508 40.6333925 -15.125 44.8125 C-13.08394361 45.69943303 -13.08394361 45.69943303 -11.125 45.8125 C-11.125 48.1225 -11.125 50.4325 -11.125 52.8125 C-15.93474725 55.61069408 -20.70294543 55.56577031 -26.125 54.8125 C-29.13072527 53.54717903 -31.74762169 52.06045084 -34.125 49.8125 C-34.125 49.1525 -34.125 48.4925 -34.125 47.8125 C-34.785 47.8125 -35.445 47.8125 -36.125 47.8125 C-39.05767721 39.01446837 -37.22954266 30.12910679 -33.67578125 21.8203125 C-31.34537971 17.30039011 -28.53856694 13.56375313 -25.125 9.8125 C-24.55652344 9.16410156 -23.98804688 8.51570313 -23.40234375 7.84765625 C-16.95221005 0.89796778 -9.55922396 -3.63250511 0 0 Z " fill="#F4F4F4" transform="translate(274.125,86.1875)"/>
<path d="M0 0 C2.77470369 7.88327031 4.87585101 15.90829412 6.9375 24 C7.29288976 25.38551831 7.64835891 26.77101626 8.00390625 28.15649414 C10.4569765 37.74294027 12.81995094 47.34754595 15 57 C7.36360602 63.41079988 0.39523703 65.46385615 -9.53125 65.3359375 C-12 65 -12 65 -14 63 C-13.67028521 59.70285207 -13.3773161 58.3773161 -11 56 C-9.89348282 47.82326918 -11.60872776 39.68434805 -13.1328125 31.67578125 C-14.10837221 26.53141821 -14.90947089 21.36494717 -15.6875 16.1875 C-15.81874268 15.33349609 -15.94998535 14.47949219 -16.08520508 13.59960938 C-16.20532959 12.79716797 -16.3254541 11.99472656 -16.44921875 11.16796875 C-16.55580811 10.45922607 -16.66239746 9.7504834 -16.7722168 9.02026367 C-17 7 -17 7 -17 3 C-14.91798472 2.49453964 -12.83432933 1.99583165 -10.75 1.5 C-9.58984375 1.2215625 -8.4296875 0.943125 -7.234375 0.65625 C-4 0 -4 0 0 0 Z " fill="#F6F6F6" transform="translate(112,102)"/>
<path d="M0 0 C4.57976794 0.57138882 8.04785091 2.5386984 11.9375 4.875 C16.22664144 7.4122386 20.51171559 9.82095505 25 12 C24.63938477 12.53657227 24.27876953 13.07314453 23.90722656 13.62597656 C20.11507213 19.28856905 16.40227467 24.9962909 12.75 30.75 C11.95722656 31.98556641 11.95722656 31.98556641 11.1484375 33.24609375 C10.64054687 34.04660156 10.13265625 34.84710938 9.609375 35.671875 C9.15530273 36.3844043 8.70123047 37.09693359 8.23339844 37.83105469 C6.91249994 40.15386987 5.93813955 42.50084878 5 45 C-2.34166968 44.82817369 -9.00423907 43.49379254 -15 39 C-15.91015625 37.14453125 -15.91015625 37.14453125 -16 35 C-15.1796875 32.625 -15.1796875 32.625 -13.875 30 C-10.34148092 22.64831724 -7.11308487 15.18660283 -4.375 7.5 C-3.19349309 4.49252786 -2.10819131 2.40936149 0 0 Z " fill="#F8F8F8" transform="translate(160,252)"/>
<path d="M0 0 C9.85491347 3.86744322 17.8843743 10.26896884 25 18 C25 18.66 25 19.32 25 20 C24.35675781 20.30550781 23.71351563 20.61101562 23.05078125 20.92578125 C16.39632747 24.29572575 10.95243787 28.28374731 5.41723633 33.21606445 C2.74742324 35.58604786 0.31692417 37.6252748 -3 39 C-10.94440171 29.15693625 -15.72769394 21.6799856 -15.4296875 8.68359375 C-15 6 -15 6 -12.625 2.8125 C-8.38056854 -0.11817886 -5.10524704 -0.92320542 0 0 Z " fill="#F8F8F8" transform="translate(276,272)"/>
<path d="M0 0 C8.6603664 -0.52753501 15.67276981 -0.2267695 22.6640625 5.3203125 C25.34335515 8.05947761 25.99774332 9.97683304 26.3671875 13.76953125 C26.24762033 18.2092893 24.56538745 21.35091445 22.0625 24.9375 C21.65789551 25.53796143 21.25329102 26.13842285 20.83642578 26.75708008 C15.6859518 34.18790898 9.97491298 41.45993029 1 44 C-2.96255291 44.56607899 -4.57924975 44.22720514 -8.125 42.3125 C-12.38429213 38.88654763 -15.55323788 34.89352424 -18 30 C-18.1875 27.1875 -18.1875 27.1875 -18 25 C-15.8125 24.3125 -15.8125 24.3125 -13 24 C-12.21625 24.474375 -11.4325 24.94875 -10.625 25.4375 C-7.16783022 27.49533916 -4.96744969 27.4250839 -1 27 C2.71502794 25.31135094 4.85459211 23.44711605 7 20 C7.65754555 16.27390852 7.61917612 12.73209827 7 9 C4.85445315 6.33172123 4.85445315 6.33172123 2 5 C1.01 4.34 0.02 3.68 -1 3 C-0.67 2.01 -0.34 1.02 0 0 Z " fill="#F5F5F5" transform="translate(311,128)"/>
<path d="M0 0 C5.13672787 6.16407344 4.00475895 14.96345344 3.32666016 22.49414062 C3.08164459 24.95557135 2.82765665 27.4156644 2.5625 29.875 C-1.19100948 29.7130102 -4.93806566 29.48741938 -8.6875 29.25 C-10.28271484 29.18232422 -10.28271484 29.18232422 -11.91015625 29.11328125 C-14.86975574 28.90852908 -17.57380845 28.65459038 -20.4375 27.875 C-22.87890625 24.9609375 -22.87890625 24.9609375 -24.4375 21.875 C-26.71498621 20.29434941 -26.71498621 20.29434941 -29.125 19.125 C-32.03629727 17.34004069 -33.22102598 16.5748626 -34.2421875 13.2734375 C-34.4746354 10.77286156 -34.56135284 8.38178142 -34.4375 5.875 C-9.47841789 -4.37465441 -9.47841789 -4.37465441 0 0 Z " fill="#F8F8F8" transform="translate(326.4375,93.125)"/>
<path d="M0 0 C3.78886675 2.28628351 7.00112358 5.00224715 9 9 C9.06950541 10.54023996 9.08452357 12.08334988 9.0625 13.625 C9.05347656 14.44226563 9.04445313 15.25953125 9.03515625 16.1015625 C9.02355469 16.72804687 9.01195312 17.35453125 9 18 C8.34 18 7.68 18 7 18 C6.9071875 19.11375 6.9071875 19.11375 6.8125 20.25 C5.74359613 23.86782848 4.09234428 24.93843714 1 27 C-3.72441408 28.57480469 -8.10962395 28.79132021 -12.6875 26.875 C-19.50434783 21.34782609 -19.50434783 21.34782609 -20.59375 16.1875 C-20.89715508 11.85314171 -20.8684071 8.46866584 -18.62109375 4.66796875 C-13.37480285 -0.70975323 -7.19475084 -1.7336749 0 0 Z " fill="#F6F6F6" transform="translate(291,118)"/>
<path d="M0 0 C0.54414551 0.23187012 1.08829102 0.46374023 1.64892578 0.70263672 C4.13993578 1.76249447 6.63244877 2.81877228 9.125 3.875 C10.40890625 4.42220703 10.40890625 4.42220703 11.71875 4.98046875 C16.1004429 6.8342619 20.45206901 8.58343133 25 10 C24.63648438 11.41925781 24.63648438 11.41925781 24.265625 12.8671875 C23.92651163 14.20297999 23.58802103 15.53893067 23.25 16.875 C23.07098145 17.58084229 22.89196289 18.28668457 22.70751953 19.01391602 C21.70713287 23.00803619 20.76869562 27.00717228 19.9140625 31.03515625 C19.7397168 31.85322754 19.56537109 32.67129883 19.38574219 33.51416016 C19.04831442 35.11516781 18.71809448 36.71771349 18.39550781 38.32177734 C17.99274621 40.22877331 17.50404618 42.11723927 17 44 C16.01 44.495 16.01 44.495 15 45 C14.57591421 43.22185351 14.15233095 41.443586 13.73095703 39.66479492 C13.36617986 38.12784745 12.99862885 36.59155589 12.62841797 35.0559082 C11.74403986 31.34743647 10.91095877 27.65471817 10.27734375 23.89453125 C9.28734501 16.76783978 9.28734501 16.76783978 4.9375 11.4375 C3.968125 10.963125 2.99875 10.48875 2 10 C0.0505358 6.54413165 -0.06509041 3.89891533 0 0 Z " fill="#F2F2F2" transform="translate(136,294)"/>
<path d="M0 0 C3.32520965 1.67808532 6.29125158 3.58250316 8 7 C8.43023798 10.87214182 8.31669086 12.52496371 6.125 15.8125 C3.15862098 18.86612546 1.40415921 19.2113513 -2.75 19.375 C-6.49103938 19.3533442 -8.6566975 19.02882688 -11.5625 16.625 C-14.85615092 13.07799132 -15.48771226 10.88667431 -15.3984375 5.9765625 C-15 4 -15 4 -12.5625 1.5 C-8.15047243 -0.35769582 -4.71259122 -0.97192089 0 0 Z " fill="#1C1C1C" transform="translate(234,211)"/>
<path d="M0 0 C4.69159716 3.38772897 9.0299782 6.78185183 13 11 C12.01342046 14.86410321 10.87039553 18.44022996 9.21484375 22.0703125 C6.84362044 27.32981304 4.57608088 32.63095042 2.3125 37.9375 C1.51748348 39.80101872 0.72193742 41.66431164 -0.07421875 43.52734375 C-0.42057373 44.33937256 -0.76692871 45.15140137 -1.1237793 45.98803711 C-1.71325477 47.34158054 -2.3397635 48.67952701 -3 50 C-3.99 50 -4.98 50 -6 50 C-5.49396008 47.83125748 -5.00016187 46.00032373 -4 44 C-4.05743609 41.89496724 -4.14519695 39.79070663 -4.25 37.6875 C-4.32419172 31.58354509 -4.32419172 31.58354509 -2.92578125 29.06640625 C-1.5625 27.75 -1.5625 27.75 1 26 C2.69455034 24.30544966 2.17173578 22.1891874 2.1875 19.875 C2.15747169 15.22661751 1.36995326 11.4523481 0 7 C-0.07403678 4.66784156 -0.09515886 2.33139212 0 0 Z " fill="#EEEEEE" transform="translate(142,236)"/>
<path d="M0 0 C0.79148437 -0.02578125 1.58296875 -0.0515625 2.3984375 -0.078125 C4.625 0.25 4.625 0.25 6.390625 1.4609375 C8.80162981 4.95536852 8.10494224 9.18994805 7.625 13.25 C6.37726494 16.24456414 5.39219206 17.64720624 2.875 19.625 C-0.60049694 20.59041582 -2.91887084 20.23746547 -6.375 19.25 C-9.31937973 16.07912952 -10.26350037 13.95616434 -10.9375 9.6875 C-10.23205422 5.37644246 -8.68186702 3.99227997 -5.375 1.25 C-3.79577594 -0.32922406 -2.18056126 0.042341 0 0 Z " fill="#080808" transform="translate(289.375,199.75)"/>
<path d="M0 0 C2.4375 1.5 2.4375 1.5 4 4 C4.77445501 7.84305031 4.72882266 11.27955804 3.1875 14.91796875 C1.4898109 17.3996601 -0.27167376 18.82115833 -3.1953125 19.5390625 C-7.27615665 19.79495702 -9.32781501 19.54102694 -12.5625 16.9375 C-14.35257383 13.27952304 -14.50400717 11.03205738 -14 7 C-10.87435622 0.12358369 -7.41992886 -1.98748095 0 0 Z " fill="#0D0D0D" transform="translate(182,185)"/>
<path d="M0 0 C0.99 0 1.98 0 3 0 C3.483722 3.12115862 3.64960124 5.89454155 3 9 C0.77275934 11.4618069 -1.91832231 12.74035886 -4.875 14.1875 C-6.44048472 15.02011822 -8.00559061 15.8534491 -9.5703125 16.6875 C-10.3324707 17.079375 -11.09462891 17.47125 -11.87988281 17.875 C-15.37426837 19.72922946 -18.63421046 21.94297137 -21.921875 24.13671875 C-24.62027784 25.25767181 -26.2416908 24.79566612 -29 24 C-29.33 22.68 -29.66 21.36 -30 20 C-26.57270638 17.1656516 -23.07925648 14.7001766 -19.296875 12.36328125 C-18.2346875 11.70392578 -17.1725 11.04457031 -16.078125 10.36523438 C-14.97984375 9.68783203 -13.8815625 9.01042969 -12.75 8.3125 C-10.55658069 6.95557567 -8.36383406 5.59756318 -6.171875 4.23828125 C-5.2034668 3.64055908 -4.23505859 3.04283691 -3.23730469 2.42700195 C-1.11401429 1.18598688 -1.11401429 1.18598688 0 0 Z " fill="#F0F0F0" transform="translate(111,254)"/>
<path d="M0 0 C2.29612756 11.52164009 2.29612756 11.52164009 2 17 C1.319375 16.71125 0.63875 16.4225 -0.0625 16.125 C-3.32893093 14.87402645 -6.62846123 13.92552045 -10 13 C-10.2226746 11.56465159 -10.42761906 10.12654475 -10.625 8.6875 C-10.74101563 7.88699219 -10.85703125 7.08648437 -10.9765625 6.26171875 C-11 4 -11 4 -9 1 C-5.8035914 -0.06546953 -3.34252724 -0.07427838 0 0 Z " fill="#F0F0F0" transform="translate(109,223)"/>
<path d="M0 0 C3.43670606 1.24971129 5.39433094 3.26178639 7.75 6 C8.67039063 7.051875 8.67039063 7.051875 9.609375 8.125 C11 10 11 10 11 12 C11.66 12 12.32 12 13 12 C14.5876533 13.68961269 16.09728694 15.45317371 17.5625 17.25 C18.36816406 18.22453125 19.17382812 19.1990625 20.00390625 20.203125 C21.74967831 22.64925572 22.60358528 24.07904946 23 27 C22.01 27.33 21.02 27.66 20 28 C14.0707983 21.60042322 8.36469765 15.12325224 2.91015625 8.3125 C1.10189882 6.03384513 1.10189882 6.03384513 -0.75390625 4.3125 C-2 3 -2 3 -2 1 C-1.34 0.67 -0.68 0.34 0 0 Z " fill="#171717" transform="translate(178,168)"/>
<path d="M0 0 C2.4375 0.4375 2.4375 0.4375 5.4375 2.4375 C6.21129734 9.29113357 6.21129734 9.29113357 3.75 12.9375 C0.95083204 14.75317651 -0.29146614 15.09170677 -3.5625 14.4375 C-5.9375 12.75 -5.9375 12.75 -7.5625 10.4375 C-7.5625 7.1064174 -6.57296456 5.45431804 -4.8125 2.625 C-2.5625 0.4375 -2.5625 0.4375 0 0 Z " fill="#EAEAEA" transform="translate(306.5625,136.5625)"/>
<path d="M0 0 C2.4375 1.125 2.4375 1.125 4 3 C4.5 6 4.5 6 4 9 C2.4375 10.9375 2.4375 10.9375 0 12 C-3.45113452 11.87890756 -5.96862779 11.63213135 -8.9375 9.8125 C-10.52736542 7.10037664 -10.39222062 5.07239486 -10 2 C-6.28986601 -0.47342266 -4.38939738 -0.38503486 0 0 Z " fill="#EDEDED" transform="translate(233,215)"/>
<path d="M0 0 C-0.33 1.32 -0.66 2.64 -1 4 C-5.20653967 4.84256281 -9.41549056 5.67241313 -13.625 6.5 C-15.40970703 6.85771484 -15.40970703 6.85771484 -17.23046875 7.22265625 C-18.38417969 7.44824219 -19.53789062 7.67382812 -20.7265625 7.90625 C-22.31331787 8.22045898 -22.31331787 8.22045898 -23.93212891 8.54101562 C-27.00392403 9.00058707 -29.89912996 9.081281 -33 9 C-33.33 7.68 -33.66 6.36 -34 5 C-29.64779129 4.15621817 -25.2929557 3.32684382 -20.9375 2.5 C-19.70837891 2.26152344 -18.47925781 2.02304688 -17.21289062 1.77734375 C-16.01728516 1.55175781 -14.82167969 1.32617188 -13.58984375 1.09375 C-12.49534912 0.88427734 -11.40085449 0.67480469 -10.27319336 0.45898438 C-6.80863011 -0.02683489 -3.49390665 -0.0773416 0 0 Z " fill="#131313" transform="translate(309,190)"/>
<path d="M0 0 C0.99 0.66 1.98 1.32 3 2 C3.64840842 5.42730164 3.11682024 6.8052996 1.3125 9.8125 C-1 12 -1 12 -3.5625 12.5 C-6 12 -6 12 -7.8125 10.875 C-9.55198782 8.12844028 -9.39769128 6.18153026 -9 3 C-6.78229215 -0.69617975 -4.0271794 -0.41949785 0 0 Z " fill="#ECECEC" transform="translate(269,112)"/>
<path d="M0 0 C0.3125 2.25 0.3125 2.25 0 5 C-2.24154015 7.76456618 -3.92726615 8.87874908 -7.48828125 9.28125 C-14.28023338 9.35988331 -14.28023338 9.35988331 -17 8 C-17 7.34 -17 6.68 -17 6 C-14.73192796 4.9932996 -12.46092246 3.99448234 -10.1875 3 C-9.22360352 2.57074219 -9.22360352 2.57074219 -8.24023438 2.1328125 C-5.32243531 0.86288959 -3.21734286 0 0 0 Z " fill="#E5E5E5" transform="translate(233,302)"/>
<path d="M0 0 C3.95906817 1.43308135 7.28718181 3.33141949 10.8125 5.625 C11.78832031 6.25664062 12.76414063 6.88828125 13.76953125 7.5390625 C14.50558594 8.02117187 15.24164063 8.50328125 16 9 C15.67 9.66 15.34 10.32 15 11 C10.32135223 11.46786478 6.34200178 11.80571716 2.4375 8.875 C0 6 0 6 -0.375 2.6875 C-0.25125 1.800625 -0.1275 0.91375 0 0 Z " fill="#E9E9E9" transform="translate(195,299)"/>
<path d="M0 0 C3.49291546 1.25571754 5.39762555 3.32024585 7.75 6.125 C8.36359375 6.84945312 8.9771875 7.57390625 9.609375 8.3203125 C10.29773438 9.15175781 10.29773438 9.15175781 11 10 C9.02 10.99 9.02 10.99 7 12 C5.33333333 10.33333333 3.66666667 8.66666667 2 7 C1.236875 6.278125 0.47375 5.55625 -0.3125 4.8125 C-2 3 -2 3 -2 1 C-1.34 0.67 -0.68 0.34 0 0 Z " fill="#232323" transform="translate(178,168)"/>
<path d="M0 0 C0.33 0 0.66 0 1 0 C1 1.98 1 3.96 1 6 C1.66 6.33 2.32 6.66 3 7 C2.01 8.98 1.02 10.96 0 13 C-0.99 13 -1.98 13 -3 13 C-2.85691406 12.43796875 -2.71382812 11.8759375 -2.56640625 11.296875 C-1.98879098 8.95454547 -1.45716693 6.60582341 -0.9375 4.25 C-0.76089844 3.45078125 -0.58429688 2.6515625 -0.40234375 1.828125 C-0.26957031 1.22484375 -0.13679687 0.6215625 0 0 Z " fill="#BABABA" transform="translate(139,273)"/>
<path d="M0 0 C0.66 0.99 1.32 1.98 2 3 C0.72125 3.144375 -0.5575 3.28875 -1.875 3.4375 C-4.25692894 3.70642746 -5.84452691 3.92226346 -8 5 C-8.33 3.68 -8.66 2.36 -9 1 C-5.92859432 0.08995387 -3.20100846 -0.33694826 0 0 Z " fill="#C7C7C7" transform="translate(291,197)"/>
<path d="M0 0 C0.99 0.33 1.98 0.66 3 1 C3 2.65 3 4.3 3 6 C1.68 6 0.36 6 -1 6 C-1.042721 4.33388095 -1.04063832 2.66617115 -1 1 C-0.67 0.67 -0.34 0.34 0 0 Z " fill="#CACACA" transform="translate(212,311)"/>
<path d="M0 0 C0.66 0.33 1.32 0.66 2 1 C1.030625 1.86625 0.06125 2.7325 -0.9375 3.625 C-3.91504038 6.56751049 -4.79692286 8.73538008 -5 13 C-5.33 13 -5.66 13 -6 13 C-6.3125 9.8125 -6.3125 9.8125 -6 6 C-3.5625 3.125 -3.5625 3.125 -1 1 C-0.67 0.67 -0.34 0.34 0 0 Z " fill="#565656" transform="translate(285,200)"/>
<path d="M0 0 C0.66 0.33 1.32 0.66 2 1 C-0.64 3.64 -3.28 6.28 -6 9 C-6 5.06368636 -4.57142871 3.87394974 -2 1 C-1.34 0.67 -0.68 0.34 0 0 Z " fill="#CFCFCF" transform="translate(208,355)"/>
</svg>
